<svg width="461pt" height="673pt" viewBox="0.00 0.00 461.00 673.00" xmlns="http://www.w3.org/2000/svg" xmlns:xlink="http://www.w3.org/1999/xlink">
<g id="graph0" class="graph" transform="scale(1 1) rotate(0) translate(4 668.69)">
<title>G</title>
<polygon fill="white" stroke="none" points="-4,4 -4,-668.69 457.14,-668.69 457.14,4 -4,4"/>
<!-- lookup export -->
<g id="node1" class="node">
<title>lookup export</title>
<ellipse fill="none" stroke="black" cx="313.69" cy="-646.69" rx="64.95" ry="18"/>
<text xml:space="preserve" text-anchor="middle" x="313.69" y="-642.49" font-family="Times,serif" font-size="14.00">lookup export</text>
</g>
<!-- export loaded already -->
<g id="node2" class="node">
<title>export loaded already</title>
<ellipse fill="none" stroke="black" cx="94.69" cy="-502.69" rx="94.69" ry="18"/>
<text xml:space="preserve" text-anchor="middle" x="94.69" y="-498.49" font-family="Times,serif" font-size="14.00">export loaded already</text>
</g>
<!-- lookup export&#45;&gt;export loaded already -->
<g id="edge1" class="edge">
<title>lookup export-&gt;export loaded already</title>
<path fill="none" stroke="black" d="M257.85,-637.18C224.37,-629.84 182.46,-616.51 151.69,-592.69 131,-576.68 115.67,-550.89 106.16,-531.19"/>
<polygon fill="black" stroke="black" points="109.45,-529.97 102.1,-522.34 103.09,-532.89 109.45,-529.97"/>
</g>
<!-- export not yet loaded -->
<g id="node4" class="node">
<title>export not yet loaded</title>
<ellipse fill="none" stroke="black" cx="253.69" cy="-574.69" rx="92.83" ry="18"/>
<text xml:space="preserve" text-anchor="middle" x="253.69" y="-570.49" font-family="Times,serif" font-size="14.00">export not yet loaded</text>
</g>
<!-- lookup export&#45;&gt;export not yet loaded -->
<g id="edge3" class="edge">
<title>lookup export-&gt;export not yet loaded</title>
<path fill="none" stroke="black" d="M299.17,-628.75C292.02,-620.41 283.25,-610.18 275.34,-600.95"/>
<polygon fill="black" stroke="black" points="278.23,-598.95 269.07,-593.63 272.92,-603.5 278.23,-598.95"/>
</g>
<!-- return export -->
<g id="node3" class="node">
<title>return export</title>
<polygon fill="none" stroke="black" points="198.04,-88.69 109.34,-88.69 109.34,0 198.04,0 198.04,-88.69"/>
<polyline fill="none" stroke="black" points="121.34,-88.69 109.34,-76.69"/>
<polyline fill="none" stroke="black" points="109.34,-12 121.34,0"/>
<polyline fill="none" stroke="black" points="186.04,0 198.04,-12"/>
<polyline fill="none" stroke="black" points="198.04,-76.69 186.04,-88.69"/>
<text xml:space="preserve" text-anchor="middle" x="153.69" y="-40.15" font-family="Times,serif" font-size="14.00">return export</text>
</g>
<!-- export loaded already&#45;&gt;return export -->
<g id="edge2" class="edge">
<title>export loaded already-&gt;return export</title>
<path fill="none" stroke="black" d="M94.69,-484.2C94.69,-457.4 94.69,-404.56 94.69,-359.69 94.69,-359.69 94.69,-359.69 94.69,-213.69 94.69,-173.73 109.68,-131.28 124.55,-99.01"/>
<polygon fill="black" stroke="black" points="127.57,-100.81 128.7,-90.27 121.25,-97.8 127.57,-100.81"/>
</g>
<!-- get parent export -->
<g id="node5" class="node">
<title>get parent export</title>
<ellipse fill="none" stroke="black" cx="283.69" cy="-502.69" rx="76.46" ry="18"/>
<text xml:space="preserve" text-anchor="middle" x="283.69" y="-498.49" font-family="Times,serif" font-size="14.00">get parent export</text>
</g>
<!-- export not yet loaded&#45;&gt;get parent export -->
<g id="edge4" class="edge">
<title>export not yet loaded-&gt;get parent export</title>
<path fill="none" stroke="black" d="M261.11,-556.39C264.34,-548.85 268.21,-539.81 271.83,-531.37"/>
<polygon fill="black" stroke="black" points="275.04,-532.76 275.76,-522.19 268.61,-530 275.04,-532.76"/>
</g>
<!-- get parent export&#45;&gt;lookup export -->
<g id="edge5" class="edge">
<title>get parent export-&gt;lookup export</title>
<path fill="none" stroke="black" d="M317.07,-519.27C331.75,-528.02 347.5,-540.49 355.69,-556.69 362.91,-570.97 360.95,-577.58 355.69,-592.69 352.12,-602.95 345.64,-612.72 338.83,-621.01"/>
<polygon fill="black" stroke="black" points="336.43,-618.44 332.42,-628.25 341.67,-623.08 336.43,-618.44"/>
</g>
<!-- deserialize self export properties -->
<g id="node6" class="node">
<title>deserialize self export properties</title>
<ellipse fill="none" stroke="black" cx="259.69" cy="-430.69" rx="136.79" ry="18"/>
<text xml:space="preserve" text-anchor="middle" x="259.69" y="-426.49" font-family="Times,serif" font-size="14.00">deserialize self export properties</text>
</g>
<!-- get parent export&#45;&gt;deserialize self export properties -->
<g id="edge6" class="edge">
<title>get parent export-&gt;deserialize self export properties</title>
<path fill="none" stroke="black" d="M277.76,-484.39C275.2,-476.93 272.14,-468.02 269.28,-459.66"/>
<polygon fill="black" stroke="black" points="272.6,-458.55 266.05,-450.23 265.98,-460.82 272.6,-458.55"/>
</g>
<!-- look up property type -->
<g id="node7" class="node">
<title>look up property type</title>
<ellipse fill="none" stroke="black" cx="358.69" cy="-358.69" rx="94.45" ry="18"/>
<text xml:space="preserve" text-anchor="middle" x="358.69" y="-354.49" font-family="Times,serif" font-size="14.00">look up property type</text>
</g>
<!-- deserialize self export properties&#45;&gt;look up property type -->
<g id="edge7" class="edge">
<title>deserialize self export properties-&gt;look up property type</title>
<path fill="none" stroke="black" d="M283.91,-412.57C296.56,-403.62 312.22,-392.55 325.94,-382.85"/>
<polygon fill="black" stroke="black" points="327.68,-385.9 333.83,-377.27 323.64,-380.19 327.68,-385.9"/>
</g>
<!-- look up property type&#45;&gt;lookup export -->
<g id="edge8" class="edge">
<title>look up property type-&gt;lookup export</title>
<path fill="none" stroke="black" d="M379.47,-376.53C389.44,-385.97 400.37,-398.67 405.69,-412.69 411.37,-427.65 407.54,-432.8 405.69,-448.69 398.08,-514.01 405,-535.99 371.69,-592.69 365.13,-603.86 355.46,-614.03 345.89,-622.41"/>
<polygon fill="black" stroke="black" points="343.86,-619.55 338.38,-628.62 348.32,-624.94 343.86,-619.55"/>
</g>
<!-- read property data -->
<g id="node8" class="node">
<title>read property data</title>
<ellipse fill="none" stroke="black" cx="355.69" cy="-286.69" rx="81.28" ry="18"/>
<text xml:space="preserve" text-anchor="middle" x="355.69" y="-282.49" font-family="Times,serif" font-size="14.00">read property data</text>
</g>
<!-- look up property type&#45;&gt;read property data -->
<g id="edge9" class="edge">
<title>look up property type-&gt;read property data</title>
<path fill="none" stroke="black" d="M357.95,-340.39C357.64,-333.1 357.26,-324.42 356.91,-316.23"/>
<polygon fill="black" stroke="black" points="360.41,-316.15 356.49,-306.31 353.42,-316.45 360.41,-316.15"/>
</g>
<!-- finalize export -->
<g id="node9" class="node">
<title>finalize export</title>
<ellipse fill="none" stroke="black" cx="236.69" cy="-142.69" rx="67.07" ry="18"/>
<text xml:space="preserve" text-anchor="middle" x="236.69" y="-138.49" font-family="Times,serif" font-size="14.00">finalize export</text>
</g>
<!-- read property data&#45;&gt;finalize export -->
<g id="edge10" class="edge">
<title>read property data-&gt;finalize export</title>
<path fill="none" stroke="black" d="M356.16,-268.54C355.83,-249.21 352.59,-217.75 336.69,-196.69 324.86,-181.03 307.04,-169.52 289.7,-161.31"/>
<polygon fill="black" stroke="black" points="291.54,-158.3 280.98,-157.46 288.71,-164.7 291.54,-158.3"/>
</g>
<!-- has more properties? -->
<g id="node10" class="node">
<title>has more properties?</title>
<ellipse fill="none" stroke="black" cx="236.69" cy="-214.69" rx="91.48" ry="18"/>
<text xml:space="preserve" text-anchor="middle" x="236.69" y="-210.49" font-family="Times,serif" font-size="14.00">has more properties?</text>
</g>
<!-- read property data&#45;&gt;has more properties? -->
<g id="edge11" class="edge">
<title>read property data-&gt;has more properties?</title>
<path fill="none" stroke="black" d="M328.09,-269.46C312.13,-260.07 291.83,-248.13 274.42,-237.89"/>
<polygon fill="black" stroke="black" points="276.25,-234.9 265.86,-232.85 272.7,-240.94 276.25,-234.9"/>
</g>
<!-- finalize export&#45;&gt;return export -->
<g id="edge14" class="edge">
<title>finalize export-&gt;return export</title>
<path fill="none" stroke="black" d="M222.23,-124.91C215.48,-117.08 207.04,-107.28 198.42,-97.27"/>
<polygon fill="black" stroke="black" points="201.33,-95.28 192.15,-89.99 196.02,-99.85 201.33,-95.28"/>
</g>
<!-- has more properties?&#45;&gt;deserialize self export properties -->
<g id="edge13" class="edge">
<title>has more properties?-&gt;deserialize self export properties</title>
<path fill="none" stroke="black" d="M238.54,-232.93C242.5,-269.7 251.79,-356.2 256.64,-401.26"/>
<polygon fill="black" stroke="black" points="253.14,-401.47 257.69,-411.04 260.1,-400.72 253.14,-401.47"/>
</g>
<!-- has more properties?&#45;&gt;finalize export -->
<g id="edge12" class="edge">
<title>has more properties?-&gt;finalize export</title>
<path fill="none" stroke="black" d="M236.69,-196.39C236.69,-189.1 236.69,-180.42 236.69,-172.23"/>
<polygon fill="black" stroke="black" points="240.19,-172.31 236.69,-162.31 233.19,-172.31 240.19,-172.31"/>
</g>
</g>
</svg>